<?xml version="1.0" standalone="no"?>
<!DOCTYPE svg PUBLIC "-//W3C//DTD SVG 20010904//EN"
 "http://www.w3.org/TR/2001/REC-SVG-20010904/DTD/svg10.dtd">
<svg version="1.0" xmlns="http://www.w3.org/2000/svg"
 width="133.000000pt" height="107.000000pt" viewBox="0 0 133.000000 107.000000"
 preserveAspectRatio="xMidYMid meet">

<g transform="translate(0.000000,107.000000) scale(0.100000,-0.100000)"
fill="#000000" stroke="none">
<path d="M100 1008 c0 -24 74 -146 124 -203 55 -64 259 -230 264 -215 7 20
-30 110 -63 153 -19 24 -88 89 -155 143 -169 138 -170 138 -170 122z"/>
<path d="M1080 909 c-74 -60 -150 -126 -169 -146 -39 -44 -83 -137 -79 -166 3
-16 20 -6 109 66 58 46 128 111 156 142 50 58 128 187 121 204 -2 5 -64 -40
-138 -100z"/>
<path d="M70 782 c0 -15 61 -110 107 -167 26 -32 76 -82 111 -110 89 -72 322
-217 322 -201 0 7 -16 45 -35 84 -48 96 -121 160 -332 293 -95 60 -173 105
-173 101z"/>
<path d="M1120 709 c-264 -168 -281 -181 -326 -238 -41 -52 -91 -157 -80 -169
6 -6 195 113 293 185 40 29 97 83 128 120 55 67 130 184 117 182 -4 0 -63 -36
-132 -80z"/>
<path d="M290 411 c0 -11 80 -105 118 -139 29 -26 98 -72 190 -127 1 -1 -5
-18 -13 -38 l-15 -37 45 22 c43 21 46 21 81 4 43 -20 51 -15 35 20 -6 15 -10
28 -9 29 2 1 35 20 73 43 39 22 93 61 120 85 48 43 123 137 109 137 -14 0
-291 -144 -328 -171 l-40 -29 -23 22 c-24 22 -343 189 -343 179z"/>
</g>
</svg>
